<?xml version="1.0" standalone="no"?><!DOCTYPE svg PUBLIC "-//W3C//DTD SVG 1.1//EN" "http://www.w3.org/Graphics/SVG/1.1/DTD/svg11.dtd"><svg class="icon" height="512" viewBox="0 0 1024 1024" version="1.1" xmlns="http://www.w3.org/2000/svg"><path d="M810.666667 896H213.333333c-47.061333 0-85.333333-38.272-85.333333-85.333333V213.333333c0-47.018667 38.272-85.333333 85.333333-85.333333h597.333334c47.061333 0 85.333333 38.314667 85.333333 85.333333v597.333334c0 47.061333-38.272 85.333333-85.333333 85.333333zM213.333333 213.333333v597.333334h597.376L810.666667 213.333333H213.333333z" fill="#757575" /><path d="M768 554.666667v-85.333334h-91.392a167.04 167.04 0 0 0-18.133333-43.477333l64.725333-64.725333-60.330667-60.330667-64.725333 64.725333A167.04 167.04 0 0 0 554.666667 347.392V256h-85.333334v91.392a167.04 167.04 0 0 0-43.477333 18.133333L361.130667 300.8 300.8 361.130667l64.725333 64.725333A167.04 167.04 0 0 0 347.392 469.333333H256v85.333334h91.392c4.010667 15.488 10.154667 30.037333 18.133333 43.477333L300.8 662.869333l60.330667 60.330667 64.725333-64.725333c13.44 7.978667 27.989333 14.122667 43.477333 18.133333V768h85.333334v-91.392a167.04 167.04 0 0 0 43.477333-18.133333l64.725333 64.725333 60.330667-60.330667-64.725333-64.725333A166.4 166.4 0 0 0 676.608 554.666667H768z m-256 42.666666c-47.061333 0-85.333333-38.272-85.333333-85.333333 0-47.018667 38.272-85.333333 85.333333-85.333333s85.333333 38.314667 85.333333 85.333333c0 47.061333-38.272 85.333333-85.333333 85.333333z" fill="#757575" /></svg>